<?xml version="1.0" encoding="iso-8859-1"?>
<!-- Generator: Adobe Illustrator 16.0.0, SVG Export Plug-In . SVG Version: 6.00 Build 0)  -->
<!DOCTYPE svg PUBLIC "-//W3C//DTD SVG 1.1//EN" "http://www.w3.org/Graphics/SVG/1.1/DTD/svg11.dtd">
<svg version="1.1" id="Capa_1" xmlns="http://www.w3.org/2000/svg" xmlns:xlink="http://www.w3.org/1999/xlink" x="0px" y="0px"
	 width="489.501px" height="489.501px" viewBox="0 0 489.501 489.501" style="enable-background:new 0 0 489.501 489.501;"
	 xml:space="preserve">
<g>
	<path d="M476.466,40.714c-8.701-29.95-40.069-47.178-69.979-38.443L107.153,89.347c-29.945,8.707-47.156,40.044-38.444,69.985
		c7.181,24.683,29.853,40.71,54.321,40.71c0.198,0,0.136-0.011,0.725-0.016v111.76c-7.707-1.85-14.866-2.828-22.636-2.828
		c-49.86,0-90.337,40.413-90.337,90.273c0,49.852,40.439,90.271,90.29,90.271c49.861,0,90.302-40.419,90.302-90.271V182.481
		l182.076-52.956v122.575c-7.122-1.844-14.808-2.834-22.578-2.834c-49.851,0-90.306,40.42-90.306,90.275
		c0,49.86,40.398,90.274,90.244,90.274c49.859,0,90.273-40.414,90.273-90.274c0-0.735-0.024-1.464-0.024-2.199V109.719
		C468.937,99.852,484.892,69.634,476.466,40.714z"/>
</g>
<g>
</g>
<g>
</g>
<g>
</g>
<g>
</g>
<g>
</g>
<g>
</g>
<g>
</g>
<g>
</g>
<g>
</g>
<g>
</g>
<g>
</g>
<g>
</g>
<g>
</g>
<g>
</g>
<g>
</g>
</svg>
